<?xml version="1.0" standalone="no"?>
<!DOCTYPE svg PUBLIC "-//W3C//DTD SVG 20010904//EN"
 "http://www.w3.org/TR/2001/REC-SVG-20010904/DTD/svg10.dtd">
<svg version="1.0" xmlns="http://www.w3.org/2000/svg"
 width="506.000000pt" height="506.000000pt" viewBox="0 0 506.000000 506.000000"
 preserveAspectRatio="xMidYMid meet">
<metadata>
Created by potrace 1.14, written by Peter Selinger 2001-2017
</metadata>
<g transform="translate(0.000000,506.000000) scale(0.100000,-0.100000)"
fill="#000000" stroke="none">
<path d="M2418 4735 c-2 -1 -48 -6 -103 -9 -54 -4 -102 -9 -106 -11 -3 -3 -28
-7 -55 -10 -27 -3 -57 -8 -66 -11 -9 -3 -25 -7 -35 -9 -227 -46 -529 -163
-672 -261 -20 -13 -39 -24 -44 -24 -4 0 -13 -4 -20 -10 -7 -5 -55 -40 -107
-77 -52 -37 -106 -77 -120 -89 -14 -12 -50 -44 -80 -70 -103 -90 -275 -275
-320 -344 -158 -244 -220 -359 -280 -515 -4 -11 -12 -31 -19 -45 -24 -54 -103
-336 -137 -494 -8 -34 -7 -436 0 -493 6 -42 0 -77 -29 -190 -20 -76 -54 -205
-75 -288 -21 -82 -46 -177 -55 -210 -21 -79 -27 -175 -14 -255 14 -90 75 -213
137 -277 51 -52 145 -105 212 -120 90 -19 318 0 336 29 7 10 54 11 54 0 0 -8
161 -171 208 -211 98 -83 257 -200 302 -223 14 -7 32 -17 40 -24 25 -19 209
-111 299 -148 153 -64 427 -136 571 -151 292 -28 496 -21 760 30 45 8 224 56
245 64 11 5 54 21 95 36 103 38 258 113 359 174 46 28 86 51 87 51 2 0 47 33
101 73 115 87 189 152 297 263 l79 82 59 -25 c119 -48 293 -40 412 18 86 43
148 108 195 204 68 141 80 274 37 435 -14 52 -28 106 -32 120 -10 46 -65 255
-74 285 -33 104 -56 228 -51 272 4 27 6 147 5 268 -1 196 -4 229 -24 300 -12
44 -23 84 -25 90 -6 31 -18 75 -31 116 -8 25 -16 55 -18 66 -22 113 -159 408
-262 568 -33 50 -66 104 -74 120 -15 31 -61 82 -226 251 -84 86 -128 124 -245
219 -9 7 -48 33 -85 59 -38 25 -74 50 -81 56 -7 5 -14 10 -16 10 -2 0 -42 22
-88 49 -251 144 -577 247 -879 277 -66 6 -337 14 -342 9z m631 -1659 c32 -29
42 -69 25 -102 -32 -64 -4 -61 -547 -60 -463 1 -496 2 -515 19 -26 24 -36 78
-20 112 24 53 33 54 555 52 450 -2 483 -4 502 -21z"/>
</g>
</svg>
